# xmcd
#
# Track frame offsets:
#        187
#        13877
#        31197
#        52457
#        68460
#        86895
#        110205
#        125582
#        144562
#        160007
#        177845
#
# Disc length: 2634 seconds
#
# Revision: 0
# Processed by: cddbd v1.5.1PL0 Copyright (c) Steve Scherf et al.
# Submitted via: ExactAudioCopy v0.95a5
#
DISCID=9c0a480b
DTITLE=Ricky Jones - Ricky Jones
DYEAR=1998
DGENRE=Soul
TTITLE0=Lost In You
TTITLE1=Still In Love
TTITLE2=If I Was The One
TTITLE3=Thinkin'
TTITLE4=It Don't Make No Sense
TTITLE5=Don't Know Much About Love
TTITLE6=Love Finally Made It
TTITLE7=Words
TTITLE8=Where?
TTITLE9=Like The Wind
TTITLE10=Lullaby
EXTD=
EXTT0=
EXTT1=
EXTT2=
EXTT3=
EXTT4=
EXTT5=
EXTT6=
EXTT7=
EXTT8=
EXTT9=
EXTT10=
PLAYORDER=
